name analog
datacolumns 19
datarows 53
range 0.3385000000000001 0.3645000000000001
endheader
time	ground_force_vx	ground_force_vy	ground_force_vz	ground_force_px	ground_force_py	ground_force_pz	l_ground_force_vx	l_ground_force_vy	l_ground_force_vz	l_ground_force_px	l_ground_force_py	l_ground_force_pz	ground_torque_x	ground_torque_y	ground_torque_z	l_ground_torque_x	l_ground_torque_y	l_ground_torque_z
0.3385000000000001	-0.0	-0.0	-0.0	-6.155525207519531	-2.57560658454895	-777.8178100585938	-0.0	-0.0	-0.0	-0.0	-0.0	-0.0	-0.0	-0.0	-0.0	-0.0	-0.0	-0.0
0.3390000000000001	-0.0	-0.0	-0.0	-5.93724536895752	-2.8521728515625	-774.5648803710938	-0.0	-0.0	-0.0	-0.0	-0.0	-0.0	-0.0	-0.0	-0.0	-0.0	-0.0	-0.0
0.3395000000000001	-0.0	-0.0	-0.0	-5.550919532775879	-2.852564573287964	-774.5621948242188	-0.0	-0.0	-0.0	-0.0	-0.0	-0.0	-0.0	-0.0	-0.0	-0.0	-0.0	-0.0
0.3400000000000001	-0.0	-0.0	-0.0	-5.422048568725586	-3.5156350135803223	-771.3438720703125	-0.0	-0.0	-0.0	-0.0	-0.0	-0.0	-0.0	-0.0	-0.0	-0.0	-0.0	-0.0
0.3405000000000001	-0.0	-0.0	-0.0	-5.362957000732422	-3.912351369857788	-772.7168579101562	-0.0	-0.0	-0.0	-0.0	-0.0	-0.0	-0.0	-0.0	-0.0	-0.0	-0.0	-0.0
0.3410000000000001	-0.0	-0.0	-0.0	-4.005383014678955	-4.516926288604736	-770.674560546875	-0.0	-0.0	-0.0	-0.0	-0.0	-0.0	-0.0	-0.0	-0.0	-0.0	-0.0	-0.0
0.3415000000000001	-0.0	-0.0	-0.0	-3.34865665435791	-4.523910045623779	-771.8187866210938	-0.0	-0.0	-0.0	-0.0	-0.0	-0.0	-0.0	-0.0	-0.0	-0.0	-0.0	-0.0
0.3420000000000001	-0.0	-0.0	-0.0	-2.8352229595184326	-5.239197731018066	-770.2743530273438	-0.0	-0.0	-0.0	-0.0	-0.0	-0.0	-0.0	-0.0	-0.0	-0.0	-0.0	-0.0
0.3425000000000001	-0.0	-0.0	-0.0	-2.3583779335021973	-5.258693695068359	-773.31005859375	-0.0	-0.0	-0.0	-0.0	-0.0	-0.0	-0.0	-0.0	-0.0	-0.0	-0.0	-0.0
0.3430000000000001	-0.0	-0.0	-0.0	-2.3465123176574707	-4.940886974334717	-772.1744384765625	-0.0	-0.0	-0.0	-0.0	-0.0	-0.0	-0.0	-0.0	-0.0	-0.0	-0.0	-0.0
0.3435000000000001	-0.0	-0.0	-0.0	-2.389378309249878	-5.150275230407715	-774.0650024414062	-0.0	-0.0	-0.0	-0.0	-0.0	-0.0	-0.0	-0.0	-0.0	-0.0	-0.0	-0.0
0.3440000000000001	-0.0	-0.0	-0.0	-2.657083749771118	-5.2394795417785645	-772.6815795898438	-0.0	-0.0	-0.0	-0.0	-0.0	-0.0	-0.0	-0.0	-0.0	-0.0	-0.0	-0.0
0.3445000000000001	-0.0	-0.0	-0.0	-2.2811388969421387	-5.793476104736328	-774.222900390625	-0.0	-0.0	-0.0	-0.0	-0.0	-0.0	-0.0	-0.0	-0.0	-0.0	-0.0	-0.0
0.3450000000000001	-0.0	-0.0	-0.0	-2.2812609672546387	-5.958962440490723	-774.044189453125	-0.0	-0.0	-0.0	-0.0	-0.0	-0.0	-0.0	-0.0	-0.0	-0.0	-0.0	-0.0
0.3455000000000001	-0.0	-0.0	-0.0	-2.0708703994750977	-6.360353946685791	-773.487548828125	-0.0	-0.0	-0.0	-0.0	-0.0	-0.0	-0.0	-0.0	-0.0	-0.0	-0.0	-0.0
0.3460000000000001	-0.0	-0.0	-0.0	-2.8357770442962646	-6.314896583557129	-773.5612182617188	-0.0	-0.0	-0.0	-0.0	-0.0	-0.0	-0.0	-0.0	-0.0	-0.0	-0.0	-0.0
0.3465000000000001	-0.0	-0.0	-0.0	-3.244095087051392	-6.023105621337891	-773.5389404296875	-0.0	-0.0	-0.0	-0.0	-0.0	-0.0	-0.0	-0.0	-0.0	-0.0	-0.0	-0.0
0.3470000000000001	-0.0	-0.0	-0.0	-3.474318027496338	-6.464025020599365	-775.8617553710938	-0.0	-0.0	-0.0	-0.0	-0.0	-0.0	-0.0	-0.0	-0.0	-0.0	-0.0	-0.0
0.3475000000000001	-0.0	-0.0	-0.0	-3.5121686458587646	-5.948464870452881	-775.22998046875	-0.0	-0.0	-0.0	-0.0	-0.0	-0.0	-0.0	-0.0	-0.0	-0.0	-0.0	-0.0
0.3480000000000001	-0.0	-0.0	-0.0	-3.248931646347046	-5.633875370025635	-773.6859130859375	-0.0	-0.0	-0.0	-0.0	-0.0	-0.0	-0.0	-0.0	-0.0	-0.0	-0.0	-0.0
0.3485000000000001	-0.0	-0.0	-0.0	-3.282176733016968	-5.206754207611084	-775.9795532226562	-0.0	-0.0	-0.0	-0.0	-0.0	-0.0	-0.0	-0.0	-0.0	-0.0	-0.0	-0.0
0.3490000000000001	-0.0	-0.0	-0.0	-4.144330978393555	-4.21120548248291	-772.6842651367188	-0.0	-0.0	-0.0	-0.0	-0.0	-0.0	-0.0	-0.0	-0.0	-0.0	-0.0	-0.0
0.3495000000000001	-0.0	-0.0	-0.0	-4.371315002441406	-5.065130710601807	-773.8778686523438	-0.0	-0.0	-0.0	-0.0	-0.0	-0.0	-0.0	-0.0	-0.0	-0.0	-0.0	-0.0
0.3500000000000001	-0.0	-0.0	-0.0	-4.2821044921875	-4.76068639755249	-774.3778686523438	-0.0	-0.0	-0.0	-0.0	-0.0	-0.0	-0.0	-0.0	-0.0	-0.0	-0.0	-0.0
0.3505000000000001	-0.0	-0.0	-0.0	-4.137865543365479	-5.560235977172852	-773.74462890625	-0.0	-0.0	-0.0	-0.0	-0.0	-0.0	-0.0	-0.0	-0.0	-0.0	-0.0	-0.0
0.3510000000000001	-0.0	-0.0	-0.0	-3.4932422637939453	-5.672077178955078	-774.5958862304688	-0.0	-0.0	-0.0	-0.0	-0.0	-0.0	-0.0	-0.0	-0.0	-0.0	-0.0	-0.0
0.3515000000000001	-0.0	-0.0	-0.0	-3.2990198135375977	-6.719371795654297	-774.8698120117188	-0.0	-0.0	-0.0	-0.0	-0.0	-0.0	-0.0	-0.0	-0.0	-0.0	-0.0	-0.0
0.3520000000000001	-0.0	-0.0	-0.0	-2.67771315574646	-7.46884822845459	-776.008056640625	-0.0	-0.0	-0.0	-0.0	-0.0	-0.0	-0.0	-0.0	-0.0	-0.0	-0.0	-0.0
0.3525000000000001	-0.0	-0.0	-0.0	-2.4809112548828125	-7.363887786865234	-777.5592651367188	-0.0	-0.0	-0.0	-0.0	-0.0	-0.0	-0.0	-0.0	-0.0	-0.0	-0.0	-0.0
0.3530000000000001	-0.0	-0.0	-0.0	-2.8907272815704346	-8.430663108825684	-776.5714721679688	-0.0	-0.0	-0.0	-0.0	-0.0	-0.0	-0.0	-0.0	-0.0	-0.0	-0.0	-0.0
0.3535000000000001	-0.0	-0.0	-0.0	-2.854736328125	-9.07301902770996	-776.85400390625	-0.0	-0.0	-0.0	-0.0	-0.0	-0.0	-0.0	-0.0	-0.0	-0.0	-0.0	-0.0
0.3540000000000001	-0.0	-0.0	-0.0	-2.640587329864502	-8.271357536315918	-774.7355346679688	-0.0	-0.0	-0.0	-0.0	-0.0	-0.0	-0.0	-0.0	-0.0	-0.0	-0.0	-0.0
0.3545000000000001	-0.0	-0.0	-0.0	-2.5334677696228027	-8.182226181030273	-771.9797973632812	-0.0	-0.0	-0.0	-0.0	-0.0	-0.0	-0.0	-0.0	-0.0	-0.0	-0.0	-0.0
0.3550000000000001	-0.0	-0.0	-0.0	-2.265681266784668	-7.915575981140137	-768.51953125	-0.0	-0.0	-0.0	-0.0	-0.0	-0.0	-0.0	-0.0	-0.0	-0.0	-0.0	-0.0
0.3555000000000001	-0.0	-0.0	-0.0	-1.9626312255859373	-6.719017028808594	-765.7678833007812	-0.0	-0.0	-0.0	-0.0	-0.0	-0.0	-0.0	-0.0	-0.0	-0.0	-0.0	-0.0
0.3560000000000001	-0.0	-0.0	-0.0	-1.4814475774765017	-6.470038414001465	-760.8887329101562	-0.0	-0.0	-0.0	-0.0	-0.0	-0.0	-0.0	-0.0	-0.0	-0.0	-0.0	-0.0
0.3565000000000001	-0.0	-0.0	-0.0	-0.983019232749939	-5.989222526550293	-759.69677734375	-0.0	-0.0	-0.0	-0.0	-0.0	-0.0	-0.0	-0.0	-0.0	-0.0	-0.0	-0.0
0.3570000000000001	-0.0	-0.0	-0.0	-0.1240911036729812	-5.134714126586914	-757.0557861328125	-0.0	-0.0	-0.0	-0.0	-0.0	-0.0	-0.0	-0.0	-0.0	-0.0	-0.0	-0.0
0.3575000000000001	-0.0	-0.0	-0.0	-0.3766011595726013	-4.634780883789063	-757.0020751953125	-0.0	-0.0	-0.0	-0.0	-0.0	-0.0	-0.0	-0.0	-0.0	-0.0	-0.0	-0.0
0.3580000000000001	-0.0	-0.0	-0.0	0.0345861464738845	-4.669335842132568	-755.0987548828125	-0.0	-0.0	-0.0	-0.0	-0.0	-0.0	-0.0	-0.0	-0.0	-0.0	-0.0	-0.0
0.3585000000000001	-0.0	-0.0	-0.0	-0.336560308933258	-4.53148078918457	-754.392333984375	-0.0	-0.0	-0.0	-0.0	-0.0	-0.0	-0.0	-0.0	-0.0	-0.0	-0.0	-0.0
0.3590000000000001	-0.0	-0.0	-0.0	-0.9813156127929688	-4.151416301727295	-753.7539672851562	-0.0	-0.0	-0.0	-0.0	-0.0	-0.0	-0.0	-0.0	-0.0	-0.0	-0.0	-0.0
0.3595000000000001	-0.0	-0.0	-0.0	-0.4081230461597442	-3.815528869628906	-752.7089233398438	-0.0	-0.0	-0.0	-0.0	-0.0	-0.0	-0.0	-0.0	-0.0	-0.0	-0.0	-0.0
0.3600000000000001	-0.0	-0.0	-0.0	-0.4331570267677307	-3.4802041053771973	-748.2882690429688	-0.0	-0.0	-0.0	-0.0	-0.0	-0.0	-0.0	-0.0	-0.0	-0.0	-0.0	-0.0
0.3605000000000001	-0.0	-0.0	-0.0	-0.4629989564418793	-2.70777440071106	-748.3883056640625	-0.0	-0.0	-0.0	-0.0	-0.0	-0.0	-0.0	-0.0	-0.0	-0.0	-0.0	-0.0
0.3610000000000001	-0.0	-0.0	-0.0	-0.2121919691562652	-2.3680014610290527	-745.7154541015625	-0.0	-0.0	-0.0	-0.0	-0.0	-0.0	-0.0	-0.0	-0.0	-0.0	-0.0	-0.0
0.3615000000000001	-0.0	-0.0	-0.0	0.4072661101818084	-2.0551650524139404	-740.6848754882812	-0.0	-0.0	-0.0	-0.0	-0.0	-0.0	-0.0	-0.0	-0.0	-0.0	-0.0	-0.0
0.3620000000000001	-0.0	-0.0	-0.0	0.6524308323860168	-1.687963366508484	-738.8524169921875	-0.0	-0.0	-0.0	-0.0	-0.0	-0.0	-0.0	-0.0	-0.0	-0.0	-0.0	-0.0
0.3625000000000001	-0.0	-0.0	-0.0	0.9979922771453856	-1.007935881614685	-736.2481079101562	-0.0	-0.0	-0.0	-0.0	-0.0	-0.0	-0.0	-0.0	-0.0	-0.0	-0.0	-0.0
0.3630000000000001	-0.0	-0.0	-0.0	0.8526922464370728	-1.0363961458206177	-730.729248046875	-0.0	-0.0	-0.0	-0.0	-0.0	-0.0	-0.0	-0.0	-0.0	-0.0	-0.0	-0.0
0.3635000000000001	-0.0	-0.0	-0.0	1.1597366333007812	-0.6304692029953003	-727.83837890625	-0.0	-0.0	-0.0	-0.0	-0.0	-0.0	-0.0	-0.0	-0.0	-0.0	-0.0	-0.0
0.3640000000000001	-0.0	-0.0	-0.0	1.150214910507202	-0.5581504106521606	-726.806640625	-0.0	-0.0	-0.0	-0.0	-0.0	-0.0	-0.0	-0.0	-0.0	-0.0	-0.0	-0.0
0.3645000000000001	-0.0	-0.0	-0.0	0.2748821079730987	-0.794929563999176	-726.9379272460938	-0.0	-0.0	-0.0	-0.0	-0.0	-0.0	-0.0	-0.0	-0.0	-0.0	-0.0	-0.0
